<mxfile host="app.diagrams.net" agent="Mozilla/5.0 (Windows NT 10.0; Win64; x64) AppleWebKit/537.36 (KHTML, like Gecko) Chrome/134.0.0.0 Safari/537.36" version="26.1.0">
  <diagram name="Page-1" id="nXK1ckkHThJ7kqvPD3dH">
    <mxGraphModel dx="1050" dy="557" grid="1" gridSize="10" guides="1" tooltips="1" connect="1" arrows="1" fold="1" page="1" pageScale="1" pageWidth="850" pageHeight="1100" math="0" shadow="0">
      <root>
        <mxCell id="0" />
        <mxCell id="1" parent="0" />
        <mxCell id="_-5_HTamFxf5JGPv1OSh-7" value="" style="edgeStyle=orthogonalEdgeStyle;rounded=0;orthogonalLoop=1;jettySize=auto;html=1;" parent="1" source="_-5_HTamFxf5JGPv1OSh-2" target="_-5_HTamFxf5JGPv1OSh-4" edge="1">
          <mxGeometry relative="1" as="geometry" />
        </mxCell>
        <mxCell id="_-5_HTamFxf5JGPv1OSh-2" value="&lt;h1&gt;Start&lt;/h1&gt;" style="ellipse;whiteSpace=wrap;html=1;fillColor=#d5e8d4;strokeColor=#82b366;" parent="1" vertex="1">
          <mxGeometry x="390" y="120" width="120" height="80" as="geometry" />
        </mxCell>
        <mxCell id="_-5_HTamFxf5JGPv1OSh-6" value="" style="edgeStyle=orthogonalEdgeStyle;rounded=0;orthogonalLoop=1;jettySize=auto;html=1;" parent="1" source="_-5_HTamFxf5JGPv1OSh-4" target="_-5_HTamFxf5JGPv1OSh-5" edge="1">
          <mxGeometry relative="1" as="geometry" />
        </mxCell>
        <mxCell id="_-5_HTamFxf5JGPv1OSh-4" value="&lt;h1&gt;Input x&lt;/h1&gt;" style="shape=parallelogram;perimeter=parallelogramPerimeter;whiteSpace=wrap;html=1;fixedSize=1;fillColor=#f8cecc;strokeColor=#b85450;" parent="1" vertex="1">
          <mxGeometry x="320" y="250" width="260" height="60" as="geometry" />
        </mxCell>
        <mxCell id="_-5_HTamFxf5JGPv1OSh-10" value="" style="edgeStyle=orthogonalEdgeStyle;rounded=0;orthogonalLoop=1;jettySize=auto;html=1;" parent="1" source="_-5_HTamFxf5JGPv1OSh-5" target="_-5_HTamFxf5JGPv1OSh-9" edge="1">
          <mxGeometry relative="1" as="geometry" />
        </mxCell>
        <mxCell id="_-5_HTamFxf5JGPv1OSh-5" value="&lt;h1&gt;Input y&lt;/h1&gt;" style="shape=parallelogram;perimeter=parallelogramPerimeter;whiteSpace=wrap;html=1;fixedSize=1;fillColor=#f8cecc;strokeColor=#b85450;" parent="1" vertex="1">
          <mxGeometry x="315" y="360" width="270" height="60" as="geometry" />
        </mxCell>
        <mxCell id="_-5_HTamFxf5JGPv1OSh-12" value="" style="edgeStyle=orthogonalEdgeStyle;rounded=0;orthogonalLoop=1;jettySize=auto;html=1;" parent="1" source="_-5_HTamFxf5JGPv1OSh-9" target="_-5_HTamFxf5JGPv1OSh-11" edge="1">
          <mxGeometry relative="1" as="geometry" />
        </mxCell>
        <mxCell id="_-5_HTamFxf5JGPv1OSh-9" value="&lt;h1&gt;Sum = x + y&lt;/h1&gt;" style="whiteSpace=wrap;html=1;fillColor=#dae8fc;strokeColor=#6c8ebf;" parent="1" vertex="1">
          <mxGeometry x="330" y="480" width="240" height="60" as="geometry" />
        </mxCell>
        <mxCell id="_-5_HTamFxf5JGPv1OSh-19" value="" style="edgeStyle=orthogonalEdgeStyle;rounded=0;orthogonalLoop=1;jettySize=auto;html=1;" parent="1" source="_-5_HTamFxf5JGPv1OSh-11" target="_-5_HTamFxf5JGPv1OSh-17" edge="1">
          <mxGeometry relative="1" as="geometry" />
        </mxCell>
        <mxCell id="_-5_HTamFxf5JGPv1OSh-11" value="&lt;h1&gt;Output Sum&lt;/h1&gt;" style="shape=parallelogram;perimeter=parallelogramPerimeter;whiteSpace=wrap;html=1;fixedSize=1;fillColor=#f8cecc;strokeColor=#b85450;" parent="1" vertex="1">
          <mxGeometry x="315" y="600" width="270" height="60" as="geometry" />
        </mxCell>
        <mxCell id="_-5_HTamFxf5JGPv1OSh-17" value="&lt;h1&gt;Stop&lt;/h1&gt;&lt;div&gt;&lt;br&gt;&lt;/div&gt;" style="ellipse;whiteSpace=wrap;html=1;fillColor=#d5e8d4;strokeColor=#82b366;" parent="1" vertex="1">
          <mxGeometry x="390" y="720" width="120" height="80" as="geometry" />
        </mxCell>
      </root>
    </mxGraphModel>
  </diagram>
</mxfile>
